<?xml version="1.0" encoding="utf-8"?>
<!-- Generator: Adobe Illustrator 24.3.0, SVG Export Plug-In . SVG Version: 6.00 Build 0)  -->
<svg version="1.1" id="Layer_1" xmlns="http://www.w3.org/2000/svg" xmlns:xlink="http://www.w3.org/1999/xlink" x="0px" y="0px"
	 viewBox="0 0 112 80" style="enable-background:new 0 0 112 80;" xml:space="preserve">
<style type="text/css">
	.st0{fill:#FFFFFF;}
	.st1{fill:#FFB45C;}
</style>
<path class="st0" d="M39.6,11.7c-10.8,1.9-19.5,10.4-22.1,21.7c-0.7,3-0.8,4.2-0.6,7.8c0.3,5.2,0.9,7.6,3.2,12.3
	c1.3,2.7,2.4,4.3,4.1,6.2l2.4,2.6l3.5-3.5c1.9-1.9,3.5-3.5,3.5-3.6s-0.9-1.1-1.9-2.2c-3.5-3.6-5-7.6-5-12.9s3.8-13.2,9.9-16.3
	c3.8-1.9,5.8-2.2,18.9-2.2h11.8l4.4-4.4c2.4-2.4,4.3-4.4,4.2-4.5c-0.1,0-0.8-0.4-1.6-0.6c-1.7-0.5-31.7-0.8-34.6-0.3L39.6,11.7z"/>
<path class="st0" d="M81.7,21.3l-3.4,3.5l2.1,2.2c3.5,3.9,5.1,7.9,5.1,13.3c0,3.2-0.8,6.4-2.2,9c-1.3,2.5-5.1,5.9-7.9,7.2
	c-4.1,1.9-6.1,2.2-19.2,2.2H44.4l-4.2,4.2c-4.7,4.7-4.7,4.6-0.9,5.2c3.7,0.7,31.2,0.5,34.5-0.1c7.8-1.6,15.4-7.9,18.9-15.7
	c1.9-4.2,2.6-8,2.4-13.4c-0.1-4.2-0.3-5.1-1.5-8.5c-0.7-2-1.8-4.7-2.5-5.8c-1.2-2-5.2-6.7-5.8-6.7C84.7,17.9,83.5,19.4,81.7,21.3z"
	/>
<path class="st1" d="M54.2,31.1c-7.9,2.8-8.7,13.7-1.4,18c1.5,0.9,2.1,1,4.8,1s3.3-0.1,4.8-1c4.6-2.7,6.3-8.3,4-13.2
	c-1-2-3.8-4.4-5.8-5c-1.9-0.5-4.7-0.4-6.4,0.1C54.2,31,54.2,31.1,54.2,31.1z"/>
</svg>
