<svg width="160" height="160" viewBox="0 0 160 160" fill="none" xmlns="http://www.w3.org/2000/svg">
<rect width="160" height="160" fill="#EAEAEA"/>
<path fill-rule="evenodd" clip-rule="evenodd" d="M59.7811 32.2074C56.7012 31.2754 53.6016 33.6015 53.6016 36.8446V128H70.4023V111.055C70.4023 108.381 72.5513 106.213 75.2025 106.213H84.8029C87.454 106.213 89.6031 108.381 89.6031 111.055V128H106.404V49.9166C106.404 47.7786 105.013 45.8937 102.983 45.2794L59.7811 32.2074ZM70.4023 60.2193C69.0767 60.2193 68.0022 61.3031 68.0022 62.64V67.4815C68.0022 68.8184 69.0767 69.9022 70.4023 69.9022H75.2025C76.5278 69.9022 77.6026 68.8184 77.6026 67.4815V62.64C77.6026 61.3031 76.5278 60.2193 75.2025 60.2193H70.4023ZM68.0022 77.1645C68.0022 75.8277 69.0767 74.7437 70.4023 74.7437H75.2025C76.5278 74.7437 77.6026 75.8277 77.6026 77.1645V82.0059C77.6026 83.3427 76.5278 84.4267 75.2025 84.4267H70.4023C69.0767 84.4267 68.0022 83.3427 68.0022 82.0059V77.1645ZM70.4023 89.2682C69.0767 89.2682 68.0022 90.3522 68.0022 91.6889V96.5304C68.0022 97.8671 69.0767 98.9511 70.4023 98.9511H75.2025C76.5278 98.9511 77.6026 97.8671 77.6026 96.5304V91.6889C77.6026 90.3522 76.5278 89.2682 75.2025 89.2682H70.4023ZM82.4028 62.64C82.4028 61.3031 83.4775 60.2193 84.8029 60.2193H89.6031C90.9284 60.2193 92.0032 61.3031 92.0032 62.64V67.4815C92.0032 68.8184 90.9284 69.9022 89.6031 69.9022H84.8029C83.4775 69.9022 82.4028 68.8184 82.4028 67.4815V62.64ZM84.8029 74.7437C83.4775 74.7437 82.4028 75.8277 82.4028 77.1645V82.0059C82.4028 83.3427 83.4775 84.4267 84.8029 84.4267H89.6031C90.9284 84.4267 92.0032 83.3427 92.0032 82.0059V77.1645C92.0032 75.8277 90.9284 74.7437 89.6031 74.7437H84.8029ZM82.4028 91.6889C82.4028 90.3522 83.4775 89.2682 84.8029 89.2682H89.6031C90.9284 89.2682 92.0032 90.3522 92.0032 91.6889V96.5304C92.0032 97.8671 90.9284 98.9511 89.6031 98.9511H84.8029C83.4775 98.9511 82.4028 97.8671 82.4028 96.5304V91.6889Z" fill="#9A9A9A"/>
<path d="M48.8007 128V45.6953H41.6004C38.9493 45.6953 36.8002 47.8629 36.8002 50.5368V123.159H34.4001C33.0746 123.159 32 124.243 32 125.58C32 126.916 33.0746 128 34.4001 128H48.8007Z" fill="#7F8080"/>
<path d="M125.604 127.998H111.203V64L120.785 69.5224C122.281 70.3847 123.204 71.9886 123.204 73.7263V123.157H125.604C126.929 123.157 128.004 124.241 128.004 125.578C128.004 126.914 126.929 127.998 125.604 127.998Z" fill="#7F8080"/>
<path d="M84.7879 128V111.055H75.1875V128H84.7879Z" fill="#7F8080"/>
</svg>
