<?xml version="1.0" encoding="utf-8"?>
<!-- Generator: Adobe Illustrator 24.3.0, SVG Export Plug-In . SVG Version: 6.00 Build 0)  -->
<svg version="1.1" id="Layer_1" xmlns="http://www.w3.org/2000/svg" xmlns:xlink="http://www.w3.org/1999/xlink" x="0px" y="0px"
	 viewBox="0 0 280 80" style="enable-background:new 0 0 280 80;" xml:space="preserve">
<style type="text/css">
	.st0{fill:#FFFFFF;}
	.st1{fill:#FFB45C;}
</style>
<path class="st0" d="M109.3,43.8l7.7-9.2h-6.6c-0.5,0-0.8-0.1-1.1-0.3c-0.2-0.2-0.4-0.5-0.4-0.8s0.1-0.6,0.4-0.8
	c0.2-0.2,0.6-0.3,1.1-0.3h8.6c1.1,0,1.7,0.5,1.7,1.5s0,0.9-0.3,1.2s-0.6,0.8-1.1,1.4l-7.2,8.6h8c0.5,0,0.8,0,1.1,0.3
	c0.2,0.2,0.3,0.5,0.3,0.8s-0.1,0.7-0.3,0.9c-0.2,0.2-0.6,0.3-1.1,0.3h-9.8c-0.7,0-1.2-0.1-1.5-0.4s-0.5-0.7-0.5-1.2s0-0.3,0-0.5
	s0.1-0.3,0.2-0.4c0-0.1,0.2-0.3,0.4-0.5c0.2-0.2,0.3-0.4,0.4-0.5C109.3,43.9,109.3,43.8,109.3,43.8z"/>
<path class="st0" d="M130.8,42.6h-5.5c0,0.6,0.1,1.2,0.4,1.7c0.2,0.5,0.6,0.9,1,1.1s0.9,0.4,1.4,0.4s0.6,0,0.9-0.1
	c0.3,0,0.5-0.2,0.8-0.4s0.5-0.3,0.7-0.5s0.5-0.5,0.9-0.8c0.1-0.1,0.3-0.2,0.6-0.2s0.5,0,0.7,0.2s0.3,0.4,0.3,0.7s0,0.5-0.3,0.9
	c-0.2,0.3-0.5,0.7-0.9,1s-0.9,0.6-1.5,0.8s-1.3,0.3-2.1,0.3c-1.8,0-3.2-0.5-4.2-1.5s-1.5-2.4-1.5-4.2s0.1-1.6,0.4-2.3
	c0.2-0.7,0.6-1.3,1.1-1.8s1.1-0.9,1.7-1.2c0.7-0.3,1.5-0.4,2.3-0.4s2,0.2,2.8,0.7s1.4,1.1,1.8,1.8c0.4,0.7,0.6,1.5,0.6,2.2
	s-0.2,1.2-0.6,1.4C132.2,42.6,131.6,42.7,130.8,42.6L130.8,42.6z M125.4,41h5.1c0-1-0.3-1.7-0.8-2.1c-0.4-0.5-1-0.7-1.8-0.7
	s-1.3,0.2-1.7,0.7S125.5,40.1,125.4,41z"/>
<path class="st0" d="M138.3,43.5v2.3c0,0.6-0.1,1-0.4,1.3s-0.6,0.4-1,0.4s-0.7-0.1-1-0.4s-0.4-0.7-0.4-1.3V38c0-1.3,0.5-1.9,1.4-1.9
	s0.8,0.1,1,0.4s0.3,0.7,0.3,1.3c0.3-0.6,0.7-1,1-1.3c0.4-0.3,0.8-0.4,1.4-0.4c0.6,0,1.2,0.1,1.7,0.4s0.8,0.7,0.8,1.2
	s-0.1,0.6-0.4,0.8c-0.2,0.2-0.5,0.3-0.8,0.3s-0.4,0-0.7-0.2c-0.4-0.1-0.7-0.2-1-0.2s-0.7,0.1-1,0.3s-0.5,0.5-0.6,1s-0.2,0.9-0.3,1.5
	c0,0.6,0,1.3,0,2.1V43.5z"/>
<path class="st0" d="M154.4,41.9c0,0.8-0.1,1.6-0.4,2.3c-0.3,0.7-0.6,1.3-1.1,1.8s-1.1,0.9-1.8,1.2s-1.5,0.4-2.3,0.4
	s-1.6-0.1-2.3-0.4c-0.7-0.3-1.3-0.7-1.8-1.2s-0.9-1.1-1.1-1.8c-0.3-0.7-0.4-1.5-0.4-2.3s0.1-1.6,0.4-2.3s0.6-1.3,1.1-1.8
	s1.1-0.9,1.8-1.2s1.5-0.4,2.3-0.4s1.6,0.1,2.3,0.4s1.3,0.7,1.8,1.2s0.9,1.1,1.1,1.8C154.3,40.3,154.4,41.1,154.4,41.9z M151.6,41.9
	c0-1.1-0.3-2-0.8-2.7c-0.5-0.6-1.2-1-2-1s-1,0.1-1.4,0.4c-0.4,0.3-0.7,0.7-1,1.3c-0.2,0.6-0.3,1.2-0.3,1.9s0.1,1.4,0.3,1.9
	s0.5,1,1,1.3c0.4,0.3,0.9,0.4,1.5,0.4c0.8,0,1.5-0.3,2-1c0.5-0.6,0.8-1.5,0.8-2.7L151.6,41.9z"/>
<path class="st0" d="M167.9,41.5h-2.8v4.3c0,0.6-0.1,1.1-0.4,1.4s-0.6,0.5-1.1,0.5s-0.8-0.2-1.1-0.5s-0.4-0.8-0.4-1.4V34.2
	c0-0.7,0.2-1.1,0.5-1.4c0.3-0.3,0.8-0.4,1.5-0.4h3.9c1.2,0,2,0,2.7,0.3c0.6,0.2,1.1,0.5,1.6,0.9c0.4,0.4,0.8,0.9,1,1.5
	s0.3,1.2,0.3,1.9c0,1.5-0.5,2.7-1.4,3.5s-2.3,1.2-4.2,1.2L167.9,41.5z M167.1,34.6H165v4.6h2.1c0.7,0,1.3,0,1.8-0.2s0.8-0.4,1.1-0.7
	s0.4-0.8,0.4-1.3s-0.2-1.2-0.6-1.6S168.5,34.7,167.1,34.6L167.1,34.6z"/>
<path class="st0" d="M185.5,41.9c0,0.8-0.1,1.6-0.4,2.3c-0.3,0.7-0.6,1.3-1.1,1.8s-1.1,0.9-1.8,1.2s-1.5,0.4-2.3,0.4
	s-1.6-0.1-2.3-0.4c-0.7-0.3-1.3-0.7-1.8-1.2s-0.9-1.1-1.1-1.8c-0.3-0.7-0.4-1.5-0.4-2.3s0.1-1.6,0.4-2.3c0.3-0.7,0.6-1.3,1.1-1.8
	s1.1-0.9,1.8-1.2s1.5-0.4,2.3-0.4s1.6,0.1,2.3,0.4c0.7,0.3,1.3,0.7,1.8,1.2s0.9,1.1,1.1,1.8C185.4,40.3,185.5,41.1,185.5,41.9z
	 M182.7,41.9c0-1.1-0.3-2-0.8-2.7c-0.5-0.6-1.2-1-2-1s-1,0.1-1.4,0.4c-0.4,0.3-0.7,0.7-1,1.3c-0.2,0.6-0.3,1.2-0.3,1.9
	s0.1,1.4,0.3,1.9s0.5,1,1,1.3c0.4,0.3,0.9,0.4,1.5,0.4c0.8,0,1.5-0.3,2-1c0.5-0.6,0.8-1.5,0.8-2.7L182.7,41.9z"/>
<path class="st0" d="M189.2,34.9c-0.4,0-0.7-0.1-1-0.4c-0.3-0.2-0.4-0.6-0.4-1s0.1-0.7,0.4-1c0.3-0.3,0.6-0.4,1-0.4s0.7,0.1,1,0.3
	s0.4,0.6,0.4,1s-0.1,0.8-0.4,1C189.9,34.6,189.6,34.8,189.2,34.9L189.2,34.9z M190.5,37.8v8.1c0,0.6-0.1,1-0.4,1.3
	c-0.3,0.3-0.6,0.4-1,0.4s-0.7-0.1-1-0.4c-0.3-0.3-0.4-0.7-0.4-1.3v-8c0-0.6,0.1-1,0.4-1.3s0.6-0.4,1-0.4s0.7,0.1,1,0.4
	S190.5,37.3,190.5,37.8z"/>
<path class="st0" d="M196,37.7V38c0.5-0.6,1-1.1,1.6-1.4c0.6-0.3,1.3-0.5,2-0.5s1.4,0.2,2,0.5s1,0.8,1.3,1.4
	c0.2,0.3,0.3,0.7,0.4,1.1c0.1,0.4,0,0.9,0,1.5v5.2c0,0.6-0.1,1-0.4,1.3c-0.3,0.3-0.6,0.4-1,0.4s-0.8-0.1-1-0.4
	c-0.2-0.3-0.4-0.7-0.4-1.3v-4.7c0-0.9-0.1-1.6-0.4-2.1s-0.8-0.7-1.5-0.7s-1,0.1-1.4,0.4c-0.4,0.3-0.7,0.7-0.9,1.2
	c-0.1,0.4-0.2,1.2-0.2,2.3v3.5c0,0.6-0.1,1-0.4,1.3c-0.3,0.3-0.6,0.4-1,0.4s-0.7-0.1-1-0.4c-0.3-0.3-0.4-0.7-0.4-1.3v-8.1
	c0-0.5,0.1-0.9,0.3-1.2s0.5-0.4,1-0.4s0.5,0,0.7,0.2s0.4,0.3,0.5,0.5S196,37.2,196,37.7L196,37.7z"/>
<path class="st0" d="M206.3,36.4h0.3v-1.7c0-0.5,0-0.8,0-1.1s0-0.5,0.2-0.7c0.1-0.2,0.3-0.3,0.5-0.5c0.2-0.1,0.4-0.2,0.7-0.2
	s0.7,0.1,1,0.4c0.2,0.2,0.3,0.4,0.4,0.7c0,0.3,0,0.6,0,1.1v1.9h1c0.4,0,0.7,0,0.9,0.3c0.2,0.2,0.3,0.4,0.3,0.7s-0.1,0.6-0.4,0.8
	s-0.7,0.2-1.3,0.2h-0.5v5.1c0,0.4,0,0.8,0,1s0.1,0.4,0.2,0.6c0.1,0.1,0.3,0.2,0.7,0.2s0.4,0,0.7,0s0.5,0,0.7,0s0.4,0,0.6,0.3
	c0.2,0.3,0.3,0.4,0.3,0.7c0,0.5-0.2,0.8-0.7,1s-1.2,0.4-2.1,0.4c-0.9,0-1.5-0.1-2-0.4s-0.7-0.7-0.9-1.2c-0.1-0.5-0.2-1.2-0.2-2.1
	v-5.4h-0.4c-0.4,0-0.7,0-0.9-0.3s-0.3-0.4-0.3-0.7s0.1-0.5,0.3-0.7S205.9,36.5,206.3,36.4L206.3,36.4z"/>
<path class="st0" d="M224.8,41.5H222v4.3c0,0.6-0.1,1.1-0.4,1.4c-0.3,0.3-0.7,0.5-1.1,0.5c-0.4,0-0.8-0.2-1.1-0.5s-0.4-0.8-0.4-1.4
	V34.2c0-0.7,0.2-1.1,0.5-1.4c0.3-0.3,0.8-0.4,1.5-0.4h3.9c1.2,0,2,0,2.7,0.3c0.6,0.2,1.1,0.5,1.6,0.9c0.4,0.4,0.8,0.9,1,1.5
	s0.3,1.2,0.3,1.9c0,1.5-0.5,2.7-1.4,3.5s-2.3,1.2-4.2,1.2L224.8,41.5z M224.1,34.6H222v4.6h2.1c0.7,0,1.3,0,1.8-0.2s0.8-0.4,1.1-0.7
	s0.4-0.8,0.4-1.3s-0.2-1.2-0.6-1.6S225.5,34.7,224.1,34.6L224.1,34.6z"/>
<path class="st0" d="M239.1,46c-0.7,0.5-1.3,0.9-2,1.2c-0.6,0.3-1.3,0.4-2.1,0.4s-1.3-0.1-1.9-0.4c-0.5-0.3-1-0.7-1.3-1.2
	s-0.4-1-0.4-1.6s0.2-1.4,0.7-2s1.2-0.9,2-1.1c0.2,0,0.6-0.1,1.3-0.3c0.7-0.1,1.3-0.3,1.8-0.4c0.5-0.1,1-0.3,1.6-0.4
	c0-0.7-0.2-1.3-0.4-1.6c-0.3-0.3-0.8-0.5-1.6-0.5s-1.2,0-1.6,0.3c-0.4,0.2-0.7,0.5-0.9,0.9c-0.3,0.4-0.4,0.7-0.5,0.8
	s-0.3,0.2-0.7,0.2s-0.6-0.1-0.8-0.3s-0.3-0.5-0.3-0.8c0-0.5,0.2-1,0.5-1.4c0.3-0.5,0.9-0.8,1.6-1.1c0.7-0.3,1.7-0.5,2.8-0.5
	s2.2,0.1,2.9,0.4s1.2,0.8,1.5,1.4c0.3,0.6,0.4,1.5,0.4,2.5s0,1.2,0,1.7s0,1,0,1.5s0,1.1,0.3,1.6c0.2,0.6,0.3,0.9,0.3,1.1
	c0,0.3-0.1,0.5-0.4,0.8c-0.3,0.2-0.6,0.4-0.9,0.4c-0.3,0-0.6-0.1-0.9-0.4c-0.3-0.3-0.6-0.7-0.9-1.2C239.2,46,239.1,46,239.1,46z
	 M238.9,41.9c-0.4,0.2-1,0.3-1.8,0.5s-1.3,0.3-1.6,0.4c-0.3,0-0.6,0.2-0.9,0.5c-0.3,0.2-0.4,0.5-0.4,1s0.2,0.8,0.5,1.1
	s0.7,0.4,1.3,0.4s1.1-0.1,1.5-0.4c0.5-0.2,0.8-0.6,1-0.9c0.3-0.4,0.4-1.1,0.4-2.1V41.9L238.9,41.9z"/>
<path class="st0" d="M244.1,36.4h0.3v-1.7c0-0.5,0-0.8,0-1.1s0-0.5,0.2-0.7c0.1-0.2,0.3-0.3,0.5-0.5c0.2-0.1,0.4-0.2,0.7-0.2
	s0.7,0.1,1,0.4c0.2,0.2,0.3,0.4,0.4,0.7c0,0.3,0,0.6,0,1.1v1.9h1c0.4,0,0.7,0,0.9,0.3c0.2,0.2,0.3,0.4,0.3,0.7s-0.1,0.6-0.4,0.8
	c-0.3,0.2-0.7,0.2-1.3,0.2h-0.5v5.1c0,0.4,0,0.8,0,1s0.1,0.4,0.2,0.6c0.1,0.1,0.3,0.2,0.7,0.2s0.4,0,0.7,0s0.5,0,0.7,0
	s0.4,0,0.6,0.3s0.3,0.4,0.3,0.7c0,0.5-0.2,0.8-0.7,1s-1.2,0.4-2.1,0.4s-1.5-0.1-2-0.4s-0.7-0.7-0.9-1.2c-0.1-0.5-0.2-1.2-0.2-2.1
	v-5.4h-0.4c-0.4,0-0.7,0-0.9-0.3s-0.3-0.4-0.3-0.7s0.1-0.5,0.3-0.7s0.5-0.3,1-0.3L244.1,36.4z"/>
<path class="st0" d="M254.1,33.7v4.2c0.4-0.4,0.7-0.7,1-1c0.3-0.2,0.7-0.4,1.1-0.5c0.4-0.1,0.9-0.2,1.3-0.2c0.7,0,1.3,0.2,1.9,0.5
	s1,0.7,1.3,1.3c0.2,0.3,0.3,0.7,0.4,1.1c0,0.4,0.1,0.9,0.1,1.4v5.4c0,0.6-0.1,1-0.4,1.3s-0.6,0.4-1,0.4c-0.9,0-1.4-0.6-1.4-1.7v-4.7
	c0-0.9-0.1-1.6-0.4-2.1s-0.8-0.7-1.5-0.7c-0.7,0-0.9,0.1-1.3,0.4c-0.4,0.3-0.7,0.7-0.9,1.2c-0.2,0.4-0.2,1.2-0.2,2.2v3.7
	c0,0.6-0.1,1-0.4,1.3c-0.2,0.3-0.6,0.4-1,0.4c-0.9,0-1.4-0.6-1.4-1.7V33.8c0-0.6,0.1-1,0.4-1.3c0.2-0.3,0.6-0.4,1-0.4s0.8,0.1,1,0.4
	C253.9,32.8,254.1,33.2,254.1,33.7L254.1,33.7z"/>
<path class="st0" d="M36.2,12.7c-10.8,1.9-19.5,10.4-22.1,21.7c-0.7,3-0.8,4.2-0.6,7.8c0.3,5.2,0.9,7.6,3.2,12.3
	c1.3,2.7,2.4,4.3,4.1,6.2l2.4,2.6l3.5-3.5c1.9-1.9,3.5-3.5,3.5-3.6s-0.9-1.1-1.9-2.2c-3.5-3.6-5-7.6-5-12.9s3.8-13.2,9.9-16.3
	c3.8-1.9,5.8-2.2,18.9-2.2h11.8l4.4-4.4c2.4-2.4,4.3-4.4,4.2-4.5c-0.1,0-0.8-0.4-1.6-0.6c-1.7-0.5-31.7-0.8-34.6-0.3L36.2,12.7z"/>
<path class="st0" d="M78.3,22.3l-3.4,3.5L77,28c3.5,3.9,5.1,7.9,5.1,13.3c0,3.2-0.8,6.4-2.2,9c-1.3,2.5-5.1,5.9-7.9,7.2
	c-4.1,1.9-6.1,2.2-19.2,2.2H41l-4.2,4.2c-4.7,4.7-4.7,4.6-0.9,5.2c3.7,0.7,31.2,0.5,34.5-0.1c7.8-1.6,15.4-7.9,18.9-15.7
	c1.9-4.2,2.6-8,2.4-13.4c-0.1-4.2-0.3-5.1-1.5-8.5c-0.7-2-1.8-4.7-2.5-5.8c-1.2-2-5.2-6.7-5.8-6.7C81.3,18.9,80.1,20.4,78.3,22.3z"
	/>
<path class="st1" d="M50.8,32.1c-7.9,2.8-8.7,13.7-1.4,18c1.5,0.9,2.1,1,4.8,1s3.3-0.1,4.8-1c4.6-2.7,6.3-8.3,4-13.2
	c-1-2-3.8-4.4-5.8-5c-1.9-0.5-4.7-0.4-6.4,0.1C50.8,32,50.8,32.1,50.8,32.1z"/>
</svg>
