<svg width="280" height="80" viewBox="0 0 280 80" fill="none" xmlns="http://www.w3.org/2000/svg">
<path d="M41.5918 11.657C30.7918 13.557 22.0918 22.057 19.4918 33.357C18.7918 36.357 18.6918 37.5569 18.8918 41.1569C19.1918 46.3569 19.7918 48.757 22.0918 53.457C23.3918 56.157 24.4918 57.757 26.1918 59.657L28.5918 62.257L32.0918 58.757C33.9918 56.857 35.5918 55.257 35.5918 55.157C35.5918 55.057 34.6918 54.057 33.6918 52.957C30.1918 49.357 28.6918 45.357 28.6918 40.057C28.6918 34.757 32.4918 26.857 38.5918 23.757C42.3918 21.857 44.3918 21.557 57.4918 21.557H69.2918L73.6918 17.157C76.0918 14.757 77.9918 12.757 77.8918 12.657C77.7918 12.657 77.0918 12.257 76.2918 12.057C74.5918 11.557 44.5918 11.257 41.6918 11.757L41.5918 11.657Z" fill="#010101"/>
<path d="M83.6933 21.2594L80.2933 24.7594L82.3933 26.9594C85.8933 30.8594 87.4933 34.8594 87.4933 40.2594C87.4933 43.4594 86.6933 46.6594 85.2933 49.2594C83.9933 51.7594 80.1933 55.1594 77.3933 56.4594C73.2933 58.3594 71.2933 58.6594 58.1933 58.6594H46.3933L42.1933 62.8594C37.4933 67.5594 37.4933 67.4594 41.2933 68.0594C44.9933 68.7594 72.4933 68.5594 75.7933 67.9594C83.5933 66.3594 91.1933 60.0594 94.6933 52.2594C96.5933 48.0594 97.2933 44.2594 97.0933 38.8594C96.9933 34.6594 96.7933 33.7594 95.5933 30.3594C94.8933 28.3594 93.7933 25.6594 93.0933 24.5594C91.8933 22.5594 87.8933 17.8594 87.2933 17.8594C86.6933 17.8594 85.4933 19.3594 83.6933 21.2594Z" fill="#010101"/>
<path d="M56.1915 31.06C48.2915 33.86 47.4915 44.76 54.7915 49.06C56.2915 49.96 56.8915 50.06 59.5915 50.06C62.2915 50.06 62.8915 49.96 64.3915 49.06C68.9915 46.36 70.6915 40.76 68.3915 35.86C67.3915 33.86 64.5915 31.46 62.5915 30.86C60.6915 30.36 57.8915 30.46 56.1915 30.96V31.06Z" fill="#010101"/>
<path d="M109.293 43.7516L116.993 34.5516H110.393C109.893 34.5516 109.593 34.4516 109.293 34.2516C109.093 34.0516 108.893 33.7516 108.893 33.4516C108.893 33.1516 108.993 32.8516 109.293 32.6516C109.493 32.4516 109.893 32.3516 110.393 32.3516H118.993C120.093 32.3516 120.693 32.8516 120.693 33.8516C120.693 34.8516 120.693 34.7516 120.393 35.0516C120.093 35.3516 119.793 35.8516 119.293 36.4516L112.093 45.0516H120.093C120.593 45.0516 120.893 45.0516 121.193 45.3516C121.393 45.5516 121.493 45.8516 121.493 46.1516C121.493 46.4516 121.393 46.8516 121.193 47.0516C120.993 47.2516 120.593 47.3516 120.093 47.3516H110.293C109.593 47.3516 109.093 47.2516 108.793 46.9516C108.493 46.6516 108.293 46.2516 108.293 45.7516C108.293 45.2516 108.293 45.4516 108.293 45.2516C108.293 45.0516 108.393 44.9516 108.493 44.8516C108.493 44.7516 108.693 44.5516 108.893 44.3516C109.093 44.1516 109.193 43.9516 109.293 43.8516V43.7516Z" fill="#010101"/>
<path d="M130.792 42.5578H125.292C125.292 43.1578 125.392 43.7578 125.692 44.2578C125.892 44.7578 126.292 45.1578 126.692 45.3578C127.092 45.5578 127.592 45.7578 128.092 45.7578C128.592 45.7578 128.692 45.7578 128.992 45.6578C129.292 45.6578 129.492 45.4578 129.792 45.2578C130.092 45.0578 130.292 44.9578 130.492 44.7578C130.692 44.5578 130.992 44.2578 131.392 43.9578C131.492 43.8578 131.692 43.7578 131.992 43.7578C132.292 43.7578 132.492 43.7578 132.692 43.9578C132.892 44.1578 132.992 44.3578 132.992 44.6578C132.992 44.9578 132.992 45.1578 132.692 45.5578C132.492 45.8578 132.192 46.2578 131.792 46.5578C131.392 46.8578 130.892 47.1578 130.292 47.3578C129.692 47.5578 128.992 47.6578 128.192 47.6578C126.392 47.6578 124.992 47.1578 123.992 46.1578C122.992 45.1578 122.492 43.7578 122.492 41.9578C122.492 40.1578 122.592 40.3578 122.892 39.6578C123.092 38.9578 123.492 38.3578 123.992 37.8578C124.492 37.3578 125.092 36.9578 125.692 36.6578C126.392 36.3578 127.192 36.2578 127.992 36.2578C128.792 36.2578 129.992 36.4578 130.792 36.9578C131.592 37.4578 132.192 38.0578 132.592 38.7578C132.992 39.4578 133.192 40.2578 133.192 40.9578C133.192 41.6578 132.992 42.1578 132.592 42.3578C132.192 42.5578 131.592 42.6578 130.892 42.6578L130.792 42.5578ZM125.392 40.9578H130.492C130.492 39.9578 130.192 39.2578 129.692 38.8578C129.292 38.3578 128.692 38.1578 127.892 38.1578C127.092 38.1578 126.592 38.3578 126.192 38.8578C125.792 39.3578 125.492 40.0578 125.392 40.9578Z" fill="#010101"/>
<path d="M138.292 43.4547V45.7547C138.292 46.3547 138.192 46.7547 137.892 47.0547C137.592 47.3547 137.292 47.4547 136.892 47.4547C136.492 47.4547 136.192 47.3547 135.892 47.0547C135.592 46.7547 135.492 46.3547 135.492 45.7547V37.9547C135.492 36.6547 135.992 36.0547 136.892 36.0547C137.792 36.0547 137.692 36.1547 137.892 36.4547C138.092 36.7547 138.192 37.1547 138.192 37.7547C138.492 37.1547 138.892 36.7547 139.192 36.4547C139.592 36.1547 139.992 36.0547 140.592 36.0547C141.192 36.0547 141.792 36.1547 142.292 36.4547C142.792 36.7547 143.092 37.1547 143.092 37.6547C143.092 38.1547 142.992 38.2547 142.692 38.4547C142.492 38.6547 142.192 38.7547 141.892 38.7547C141.592 38.7547 141.492 38.7547 141.192 38.5547C140.792 38.4547 140.492 38.3547 140.192 38.3547C139.892 38.3547 139.492 38.4547 139.192 38.6547C138.892 38.8547 138.692 39.1547 138.592 39.6547C138.492 40.1547 138.392 40.5547 138.292 41.1547C138.292 41.7547 138.292 42.4547 138.292 43.2547V43.4547Z" fill="#010101"/>
<path d="M154.391 41.8563C154.391 42.6563 154.291 43.4563 153.991 44.1562C153.691 44.8562 153.391 45.4563 152.891 45.9563C152.391 46.4563 151.791 46.8562 151.091 47.1562C150.391 47.4563 149.591 47.5563 148.791 47.5563C147.991 47.5563 147.191 47.4563 146.491 47.1562C145.791 46.8562 145.191 46.4563 144.691 45.9563C144.191 45.4563 143.791 44.8562 143.591 44.1562C143.291 43.4563 143.191 42.6563 143.191 41.8563C143.191 41.0563 143.291 40.2563 143.591 39.5563C143.891 38.8563 144.191 38.2563 144.691 37.7563C145.191 37.2563 145.791 36.8563 146.491 36.5563C147.191 36.2563 147.991 36.1562 148.791 36.1562C149.591 36.1562 150.391 36.2563 151.091 36.5563C151.791 36.8563 152.391 37.2563 152.891 37.7563C153.391 38.2563 153.791 38.8563 153.991 39.5563C154.291 40.2563 154.391 41.0563 154.391 41.8563ZM151.591 41.8563C151.591 40.7563 151.291 39.8563 150.791 39.1562C150.291 38.5563 149.591 38.1562 148.791 38.1562C147.991 38.1562 147.791 38.2563 147.391 38.5563C146.991 38.8563 146.691 39.2563 146.391 39.8563C146.191 40.4563 146.091 41.0563 146.091 41.7563C146.091 42.4563 146.191 43.1562 146.391 43.6562C146.591 44.1562 146.891 44.6563 147.391 44.9563C147.791 45.2563 148.291 45.3563 148.891 45.3563C149.691 45.3563 150.391 45.0563 150.891 44.3563C151.391 43.7563 151.691 42.8562 151.691 41.6562L151.591 41.8563Z" fill="#010101"/>
<path d="M167.894 41.4516H165.094V45.7516C165.094 46.3516 164.994 46.8516 164.694 47.1516C164.394 47.4516 164.094 47.6516 163.594 47.6516C163.094 47.6516 162.794 47.4516 162.494 47.1516C162.194 46.8516 162.094 46.3516 162.094 45.7516V34.1516C162.094 33.4516 162.294 33.0516 162.594 32.7516C162.894 32.4516 163.394 32.3516 164.094 32.3516H167.994C169.194 32.3516 169.994 32.3516 170.694 32.6516C171.294 32.8516 171.794 33.1516 172.294 33.5516C172.694 33.9516 173.094 34.4516 173.294 35.0516C173.494 35.6516 173.594 36.2516 173.594 36.9516C173.594 38.4516 173.094 39.6516 172.194 40.4516C171.294 41.2516 169.894 41.6516 167.994 41.6516L167.894 41.4516ZM167.094 34.5516H164.994V39.1516H167.094C167.794 39.1516 168.394 39.1516 168.894 38.9516C169.394 38.7516 169.694 38.5516 169.994 38.2516C170.294 37.9516 170.394 37.4516 170.394 36.9516C170.394 36.4516 170.194 35.7516 169.794 35.3516C169.394 34.9516 168.494 34.6516 167.094 34.6516V34.5516Z" fill="#010101"/>
<path d="M185.493 41.8563C185.493 42.6563 185.393 43.4563 185.093 44.1562C184.793 44.8562 184.493 45.4563 183.993 45.9563C183.493 46.4563 182.893 46.8562 182.193 47.1562C181.493 47.4563 180.693 47.5563 179.893 47.5563C179.093 47.5563 178.293 47.4563 177.593 47.1562C176.893 46.8562 176.293 46.4563 175.793 45.9563C175.293 45.4563 174.893 44.8562 174.693 44.1562C174.393 43.4563 174.293 42.6563 174.293 41.8563C174.293 41.0563 174.393 40.2563 174.693 39.5563C174.993 38.8563 175.293 38.2563 175.793 37.7563C176.293 37.2563 176.893 36.8563 177.593 36.5563C178.293 36.2563 179.093 36.1562 179.893 36.1562C180.693 36.1562 181.493 36.2563 182.193 36.5563C182.893 36.8563 183.493 37.2563 183.993 37.7563C184.493 38.2563 184.893 38.8563 185.093 39.5563C185.393 40.2563 185.493 41.0563 185.493 41.8563ZM182.693 41.8563C182.693 40.7563 182.393 39.8563 181.893 39.1562C181.393 38.5563 180.693 38.1562 179.893 38.1562C179.093 38.1562 178.893 38.2563 178.493 38.5563C178.093 38.8563 177.793 39.2563 177.493 39.8563C177.293 40.4563 177.193 41.0563 177.193 41.7563C177.193 42.4563 177.293 43.1562 177.493 43.6562C177.693 44.1562 177.993 44.6563 178.493 44.9563C178.893 45.2563 179.393 45.3563 179.993 45.3563C180.793 45.3563 181.493 45.0563 181.993 44.3563C182.493 43.7563 182.793 42.8562 182.793 41.6562L182.693 41.8563Z" fill="#010101"/>
<path d="M189.191 34.8547C188.791 34.8547 188.491 34.7547 188.191 34.4547C187.891 34.2547 187.791 33.8547 187.791 33.4547C187.791 33.0547 187.891 32.7547 188.191 32.4547C188.491 32.1547 188.791 32.0547 189.191 32.0547C189.591 32.0547 189.891 32.1547 190.191 32.3547C190.491 32.5547 190.591 32.9547 190.591 33.3547C190.591 33.7547 190.491 34.1547 190.191 34.3547C189.891 34.5547 189.591 34.7547 189.191 34.7547V34.8547ZM190.491 37.7547V45.8547C190.491 46.4547 190.391 46.8547 190.091 47.1547C189.791 47.4547 189.491 47.5547 189.091 47.5547C188.691 47.5547 188.391 47.4547 188.091 47.1547C187.791 46.8547 187.691 46.4547 187.691 45.8547V37.8547C187.691 37.2547 187.791 36.8547 188.091 36.5547C188.391 36.2547 188.691 36.1547 189.091 36.1547C189.491 36.1547 189.791 36.2547 190.091 36.5547C190.391 36.8547 190.491 37.2547 190.491 37.7547Z" fill="#010101"/>
<path d="M195.993 37.6531V37.9531C196.493 37.3531 196.993 36.8531 197.593 36.5531C198.193 36.2531 198.893 36.0531 199.593 36.0531C200.293 36.0531 200.993 36.2531 201.593 36.5531C202.193 36.8531 202.593 37.3531 202.893 37.9531C203.093 38.2531 203.193 38.6531 203.293 39.0531C203.393 39.4531 203.293 39.9531 203.293 40.5531V45.7531C203.293 46.3531 203.193 46.7531 202.893 47.0531C202.593 47.3531 202.293 47.4531 201.893 47.4531C201.493 47.4531 201.093 47.3531 200.893 47.0531C200.693 46.7531 200.493 46.3531 200.493 45.7531V41.0531C200.493 40.1531 200.393 39.4531 200.093 38.9531C199.793 38.4531 199.293 38.2531 198.593 38.2531C197.893 38.2531 197.593 38.3531 197.193 38.6531C196.793 38.9531 196.493 39.3531 196.293 39.8531C196.193 40.2531 196.093 41.0531 196.093 42.1531V45.6531C196.093 46.2531 195.993 46.6531 195.693 46.9531C195.393 47.2531 195.093 47.3531 194.693 47.3531C194.293 47.3531 193.993 47.2531 193.693 46.9531C193.393 46.6531 193.293 46.2531 193.293 45.6531V37.5531C193.293 37.0531 193.393 36.6531 193.593 36.3531C193.793 36.0531 194.093 35.9531 194.593 35.9531C195.093 35.9531 195.093 35.9531 195.293 36.1531C195.493 36.3531 195.693 36.4531 195.793 36.6531C195.893 36.8531 195.993 37.1531 195.993 37.5531V37.6531Z" fill="#010101"/>
<path d="M206.294 36.3563H206.594V34.6562C206.594 34.1562 206.594 33.8563 206.594 33.5563C206.594 33.2563 206.594 33.0562 206.794 32.8562C206.894 32.6562 207.094 32.5562 207.294 32.3562C207.494 32.2562 207.694 32.1562 207.994 32.1562C208.294 32.1562 208.694 32.2563 208.994 32.5563C209.194 32.7563 209.294 32.9562 209.394 33.2562C209.394 33.5562 209.394 33.8562 209.394 34.3562V36.2562H210.394C210.794 36.2562 211.094 36.2563 211.294 36.5563C211.494 36.7563 211.594 36.9562 211.594 37.2562C211.594 37.5562 211.494 37.8563 211.194 38.0563C210.894 38.2563 210.494 38.2562 209.894 38.2562H209.394V43.3563C209.394 43.7563 209.394 44.1563 209.394 44.3563C209.394 44.5563 209.494 44.7562 209.594 44.9562C209.694 45.0562 209.894 45.1562 210.294 45.1562C210.694 45.1562 210.694 45.1562 210.994 45.1562C211.294 45.1562 211.494 45.1562 211.694 45.1562C211.894 45.1562 212.094 45.1562 212.294 45.4562C212.494 45.7562 212.594 45.8562 212.594 46.1562C212.594 46.6562 212.394 46.9562 211.894 47.1562C211.394 47.3562 210.694 47.5563 209.794 47.5563C208.894 47.5563 208.294 47.4562 207.794 47.1562C207.294 46.8562 207.094 46.4562 206.894 45.9562C206.794 45.4562 206.694 44.7563 206.694 43.8563V38.4562H206.294C205.894 38.4562 205.594 38.4562 205.394 38.1562C205.194 37.8562 205.094 37.7562 205.094 37.4562C205.094 37.1562 205.194 36.9562 205.394 36.7562C205.594 36.5562 205.894 36.4562 206.394 36.4562L206.294 36.3563Z" fill="#010101"/>
<path d="M224.792 41.4516H221.992V45.7516C221.992 46.3516 221.892 46.8516 221.592 47.1516C221.292 47.4516 220.892 47.6516 220.492 47.6516C220.092 47.6516 219.692 47.4516 219.392 47.1516C219.092 46.8516 218.992 46.3516 218.992 45.7516V34.1516C218.992 33.4516 219.192 33.0516 219.492 32.7516C219.792 32.4516 220.292 32.3516 220.992 32.3516H224.892C226.092 32.3516 226.892 32.3516 227.592 32.6516C228.192 32.8516 228.692 33.1516 229.192 33.5516C229.592 33.9516 229.992 34.4516 230.192 35.0516C230.392 35.6516 230.492 36.2516 230.492 36.9516C230.492 38.4516 229.992 39.6516 229.092 40.4516C228.192 41.2516 226.792 41.6516 224.892 41.6516L224.792 41.4516ZM224.092 34.5516H221.992V39.1516H224.092C224.792 39.1516 225.392 39.1516 225.892 38.9516C226.392 38.7516 226.692 38.5516 226.992 38.2516C227.292 37.9516 227.392 37.4516 227.392 36.9516C227.392 36.4516 227.192 35.7516 226.792 35.3516C226.392 34.9516 225.492 34.6516 224.092 34.6516V34.5516Z" fill="#010101"/>
<path d="M239.095 45.9563C238.395 46.4563 237.795 46.8562 237.095 47.1562C236.495 47.4563 235.795 47.5563 234.995 47.5563C234.195 47.5563 233.695 47.4563 233.095 47.1562C232.595 46.8562 232.095 46.4563 231.795 45.9563C231.495 45.4563 231.395 44.9563 231.395 44.3563C231.395 43.7563 231.595 42.9563 232.095 42.3563C232.595 41.7563 233.295 41.4563 234.095 41.2563C234.295 41.2563 234.695 41.1563 235.395 40.9563C236.095 40.8563 236.695 40.6563 237.195 40.5563C237.695 40.4563 238.195 40.2562 238.795 40.1562C238.795 39.4562 238.595 38.8563 238.395 38.5563C238.095 38.2563 237.595 38.0563 236.795 38.0563C235.995 38.0563 235.595 38.0563 235.195 38.3563C234.795 38.5563 234.495 38.8563 234.295 39.2563C233.995 39.6563 233.895 39.9563 233.795 40.0563C233.695 40.1563 233.495 40.2563 233.095 40.2563C232.695 40.2563 232.495 40.1563 232.295 39.9563C232.095 39.7563 231.995 39.4562 231.995 39.1562C231.995 38.6562 232.195 38.1563 232.495 37.7563C232.795 37.2563 233.395 36.9563 234.095 36.6562C234.795 36.3562 235.795 36.1562 236.895 36.1562C237.995 36.1562 239.095 36.2563 239.795 36.5563C240.495 36.8563 240.995 37.3563 241.295 37.9563C241.595 38.5563 241.695 39.4563 241.695 40.4563C241.695 41.4563 241.695 41.6562 241.695 42.1562C241.695 42.6562 241.695 43.1562 241.695 43.6562C241.695 44.1562 241.695 44.7563 241.995 45.2563C242.195 45.8563 242.295 46.1563 242.295 46.3563C242.295 46.6563 242.195 46.8562 241.895 47.1562C241.595 47.3562 241.295 47.5563 240.995 47.5563C240.695 47.5563 240.395 47.4563 240.095 47.1562C239.795 46.8562 239.495 46.4563 239.195 45.9563H239.095ZM238.895 41.8563C238.495 42.0563 237.895 42.1563 237.095 42.3563C236.295 42.5563 235.795 42.6563 235.495 42.7563C235.195 42.7563 234.895 42.9563 234.595 43.2563C234.295 43.4563 234.195 43.7563 234.195 44.2563C234.195 44.7563 234.395 45.0563 234.695 45.3563C234.995 45.6563 235.395 45.7563 235.995 45.7563C236.595 45.7563 237.095 45.6563 237.495 45.3563C237.995 45.1563 238.295 44.7563 238.495 44.4563C238.795 44.0563 238.895 43.3563 238.895 42.3563V41.9563V41.8563Z" fill="#010101"/>
<path d="M244.095 36.3563H244.395V34.6562C244.395 34.1562 244.395 33.8563 244.395 33.5563C244.395 33.2563 244.395 33.0562 244.595 32.8562C244.695 32.6562 244.895 32.5562 245.095 32.3562C245.295 32.2562 245.495 32.1562 245.795 32.1562C246.095 32.1562 246.495 32.2563 246.795 32.5563C246.995 32.7563 247.095 32.9562 247.195 33.2562C247.195 33.5562 247.195 33.8562 247.195 34.3562V36.2562H248.195C248.595 36.2562 248.895 36.2563 249.095 36.5563C249.295 36.7563 249.395 36.9562 249.395 37.2562C249.395 37.5562 249.295 37.8563 248.995 38.0563C248.695 38.2563 248.295 38.2562 247.695 38.2562H247.195V43.3563C247.195 43.7563 247.195 44.1563 247.195 44.3563C247.195 44.5563 247.295 44.7562 247.395 44.9562C247.495 45.0562 247.695 45.1562 248.095 45.1562C248.495 45.1562 248.495 45.1562 248.795 45.1562C249.095 45.1562 249.295 45.1562 249.495 45.1562C249.695 45.1562 249.895 45.1562 250.095 45.4562C250.295 45.7562 250.395 45.8562 250.395 46.1562C250.395 46.6562 250.195 46.9562 249.695 47.1562C249.195 47.3562 248.495 47.5563 247.595 47.5563C246.695 47.5563 246.095 47.4562 245.595 47.1562C245.095 46.8562 244.895 46.4562 244.695 45.9562C244.595 45.4562 244.495 44.7563 244.495 43.8563V38.4562H244.095C243.695 38.4562 243.395 38.4562 243.195 38.1562C242.995 37.8562 242.895 37.7562 242.895 37.4562C242.895 37.1562 242.995 36.9562 243.195 36.7562C243.395 36.5562 243.695 36.4562 244.195 36.4562L244.095 36.3563Z" fill="#010101"/>
<path d="M254.093 33.6547V37.8547C254.493 37.4547 254.793 37.1547 255.093 36.8547C255.393 36.6547 255.793 36.4547 256.193 36.3547C256.593 36.2547 257.093 36.1547 257.493 36.1547C258.193 36.1547 258.793 36.3547 259.393 36.6547C259.993 36.9547 260.393 37.3547 260.693 37.9547C260.893 38.2547 260.993 38.6547 261.093 39.0547C261.093 39.4547 261.193 39.9547 261.193 40.4547V45.8547C261.193 46.4547 261.093 46.8547 260.793 47.1547C260.493 47.4547 260.193 47.5547 259.793 47.5547C258.893 47.5547 258.393 46.9547 258.393 45.8547V41.1547C258.393 40.2547 258.293 39.5547 257.993 39.0547C257.693 38.5547 257.193 38.3547 256.493 38.3547C255.793 38.3547 255.593 38.4547 255.193 38.7547C254.793 39.0547 254.493 39.4547 254.293 39.9547C254.093 40.3547 254.093 41.1547 254.093 42.1547V45.8547C254.093 46.4547 253.993 46.8547 253.693 47.1547C253.493 47.4547 253.093 47.5547 252.693 47.5547C251.793 47.5547 251.293 46.9547 251.293 45.8547V33.7547C251.293 33.1547 251.393 32.7547 251.693 32.4547C251.893 32.1547 252.293 32.0547 252.693 32.0547C253.093 32.0547 253.493 32.1547 253.693 32.4547C253.893 32.7547 254.093 33.1547 254.093 33.7547V33.6547Z" fill="#010101"/>
</svg>
