<?xml version="1.0" encoding="utf-8"?>
<!-- Generator: Adobe Illustrator 24.3.0, SVG Export Plug-In . SVG Version: 6.00 Build 0)  -->
<svg version="1.1" id="Layer_1" xmlns="http://www.w3.org/2000/svg" xmlns:xlink="http://www.w3.org/1999/xlink" x="0px" y="0px"
	 viewBox="0 0 184 120" style="enable-background:new 0 0 184 120;" xml:space="preserve">
<style type="text/css">
	.st0{fill:#010101;}
	.st1{fill:#FFB45C;}
</style>
<path class="st0" d="M16.6,101.8l7.7-9.1h-6.6c-0.5,0-0.8-0.1-1.1-0.3c-0.2-0.2-0.4-0.5-0.4-0.8c0-0.3,0.1-0.6,0.4-0.8
	c0.2-0.2,0.6-0.3,1.1-0.3h8.6c1.1,0,1.7,0.5,1.7,1.5c0,1,0,0.9-0.3,1.2c-0.3,0.3-0.6,0.8-1.1,1.4l-7.2,8.5h8c0.5,0,0.8,0,1.1,0.3
	c0.2,0.2,0.3,0.5,0.3,0.8c0,0.3-0.1,0.6-0.3,0.9c-0.2,0.3-0.6,0.3-1.1,0.3h-9.8c-0.7,0-1.2-0.1-1.5-0.4c-0.3-0.3-0.5-0.7-0.5-1.2
	c0-0.5,0-0.3,0-0.5c0-0.2,0.1-0.3,0.2-0.4c0-0.1,0.2-0.3,0.4-0.5C16.4,102.2,16.5,102,16.6,101.8L16.6,101.8z"/>
<path class="st0" d="M38,100.6h-5.5c0,0.6,0.1,1.2,0.4,1.7c0.3,0.5,0.6,0.9,1,1.1c0.4,0.2,0.9,0.4,1.4,0.4s0.6,0,0.9-0.1
	c0.3,0,0.5-0.2,0.8-0.4c0.3-0.2,0.5-0.3,0.7-0.5s0.5-0.5,0.9-0.8c0.1-0.1,0.3-0.2,0.6-0.2s0.5,0,0.7,0.2s0.3,0.4,0.3,0.7
	c0,0.3,0,0.5-0.3,0.9c-0.2,0.3-0.5,0.7-0.9,1c-0.4,0.3-0.9,0.6-1.5,0.8c-0.6,0.2-1.3,0.3-2.1,0.3c-1.8,0-3.2-0.5-4.2-1.5
	c-1-1-1.5-2.4-1.5-4.2c0-1.8,0.1-1.6,0.4-2.3c0.2-0.7,0.6-1.3,1.1-1.8s1.1-0.9,1.7-1.2c0.7-0.3,1.5-0.4,2.3-0.4s2,0.2,2.8,0.7
	s1.4,1.1,1.8,1.8c0.4,0.7,0.6,1.5,0.6,2.2c0,0.7-0.2,1.2-0.6,1.4c-0.4,0.2-1,0.3-1.7,0.3L38,100.6z M32.7,99h5.1
	c0-1-0.3-1.7-0.8-2.1c-0.4-0.5-1-0.7-1.8-0.7c-0.8,0-1.3,0.2-1.7,0.7C33,97.4,32.8,98.1,32.7,99z"/>
<path class="st0" d="M45.5,101.6v2.3c0,0.6-0.1,1-0.4,1.3c-0.3,0.3-0.6,0.4-1,0.4c-0.4,0-0.7-0.1-1-0.4c-0.3-0.3-0.4-0.7-0.4-1.3
	v-7.7c0-1.3,0.5-1.9,1.4-1.9c0.9,0,0.8,0.1,1,0.4c0.2,0.3,0.3,0.7,0.3,1.3c0.3-0.6,0.7-1,1-1.3c0.4-0.3,0.8-0.4,1.4-0.4
	c0.6,0,1.2,0.1,1.7,0.4c0.5,0.3,0.8,0.7,0.8,1.2s-0.1,0.6-0.4,0.8c-0.2,0.2-0.5,0.3-0.8,0.3c-0.3,0-0.4,0-0.7-0.2
	c-0.4-0.1-0.7-0.2-1-0.2s-0.7,0.1-1,0.3c-0.3,0.2-0.5,0.5-0.6,1c-0.1,0.5-0.2,0.9-0.3,1.5c0,0.6,0,1.3,0,2.1V101.6z"/>
<path class="st0" d="M61.6,99.9c0,0.8-0.1,1.6-0.4,2.3c-0.3,0.7-0.6,1.3-1.1,1.8c-0.5,0.5-1.1,0.9-1.8,1.2c-0.7,0.3-1.5,0.4-2.3,0.4
	c-0.8,0-1.6-0.1-2.3-0.4c-0.7-0.3-1.3-0.7-1.8-1.2c-0.5-0.5-0.9-1.1-1.1-1.8c-0.3-0.7-0.4-1.5-0.4-2.3c0-0.8,0.1-1.6,0.4-2.3
	c0.3-0.7,0.6-1.3,1.1-1.8s1.1-0.9,1.8-1.2c0.7-0.3,1.5-0.4,2.3-0.4c0.8,0,1.6,0.1,2.3,0.4c0.7,0.3,1.3,0.7,1.8,1.2s0.9,1.1,1.1,1.8
	C61.5,98.3,61.6,99.1,61.6,99.9z M58.8,99.9c0-1.1-0.3-2-0.8-2.7c-0.5-0.6-1.2-1-2-1c-0.8,0-1,0.1-1.4,0.4c-0.4,0.3-0.7,0.7-1,1.3
	c-0.3,0.6-0.3,1.2-0.3,1.9c0,0.7,0.1,1.4,0.3,1.9c0.2,0.5,0.5,1,1,1.3c0.4,0.3,0.9,0.4,1.5,0.4c0.8,0,1.5-0.3,2-1
	c0.5-0.6,0.8-1.5,0.8-2.7L58.8,99.9z"/>
<path class="st0" d="M75.2,99.5h-2.8v4.3c0,0.6-0.1,1.1-0.4,1.4c-0.3,0.3-0.6,0.5-1.1,0.5s-0.8-0.2-1.1-0.5
	c-0.3-0.3-0.4-0.8-0.4-1.4V92.3c0-0.7,0.2-1.1,0.5-1.4c0.3-0.3,0.8-0.4,1.5-0.4h3.9c1.2,0,2,0,2.7,0.3c0.6,0.2,1.1,0.5,1.6,0.9
	c0.5,0.4,0.8,0.9,1,1.5c0.2,0.6,0.3,1.2,0.3,1.9c0,1.5-0.5,2.7-1.4,3.5s-2.3,1.2-4.2,1.2L75.2,99.5z M74.4,92.7h-2.1v4.6h2.1
	c0.7,0,1.3,0,1.8-0.2c0.5-0.2,0.8-0.4,1.1-0.7c0.3-0.3,0.4-0.8,0.4-1.3c0-0.5-0.2-1.2-0.6-1.6C76.7,93.1,75.8,92.8,74.4,92.7
	L74.4,92.7z"/>
<path class="st0" d="M92.8,99.9c0,0.8-0.1,1.6-0.4,2.3c-0.3,0.7-0.6,1.3-1.1,1.8c-0.5,0.5-1.1,0.9-1.8,1.2c-0.7,0.3-1.5,0.4-2.3,0.4
	c-0.8,0-1.6-0.1-2.3-0.4c-0.7-0.3-1.3-0.7-1.8-1.2c-0.5-0.5-0.9-1.1-1.1-1.8c-0.3-0.7-0.4-1.5-0.4-2.3c0-0.8,0.1-1.6,0.4-2.3
	c0.3-0.7,0.6-1.3,1.1-1.8s1.1-0.9,1.8-1.2c0.7-0.3,1.5-0.4,2.3-0.4c0.8,0,1.6,0.1,2.3,0.4c0.7,0.3,1.3,0.7,1.8,1.2s0.9,1.1,1.1,1.8
	C92.7,98.3,92.8,99.1,92.8,99.9z M90,99.9c0-1.1-0.3-2-0.8-2.7c-0.5-0.6-1.2-1-2-1c-0.8,0-1,0.1-1.4,0.4c-0.4,0.3-0.7,0.7-1,1.3
	c-0.3,0.6-0.3,1.2-0.3,1.9c0,0.7,0.1,1.4,0.3,1.9c0.2,0.5,0.5,1,1,1.3c0.4,0.3,0.9,0.4,1.5,0.4c0.8,0,1.5-0.3,2-1
	c0.5-0.6,0.8-1.5,0.8-2.7L90,99.9z"/>
<path class="st0" d="M96.4,93c-0.4,0-0.7-0.1-1-0.4c-0.3-0.2-0.4-0.6-0.4-1c0-0.4,0.1-0.7,0.4-1c0.3-0.3,0.6-0.4,1-0.4
	c0.4,0,0.7,0.1,1,0.3c0.3,0.2,0.4,0.6,0.4,1c0,0.4-0.1,0.8-0.4,1C97.1,92.7,96.8,92.9,96.4,93L96.4,93z M97.7,95.9v8
	c0,0.6-0.1,1-0.4,1.3c-0.3,0.3-0.6,0.4-1,0.4c-0.4,0-0.7-0.1-1-0.4c-0.3-0.3-0.4-0.7-0.4-1.3V96c0-0.6,0.1-1,0.4-1.3
	c0.3-0.3,0.6-0.4,1-0.4c0.4,0,0.7,0.1,1,0.4C97.6,95,97.7,95.4,97.7,95.9z"/>
<path class="st0" d="M103.3,95.9v0.3c0.5-0.6,1-1.1,1.6-1.4c0.6-0.3,1.3-0.5,2-0.5c0.7,0,1.4,0.2,2,0.5c0.6,0.3,1,0.8,1.3,1.4
	c0.2,0.3,0.3,0.7,0.4,1.1c0.1,0.4,0,0.9,0,1.5v5.1c0,0.6-0.1,1-0.4,1.3c-0.3,0.3-0.6,0.4-1,0.4s-0.8-0.1-1-0.4
	c-0.2-0.3-0.4-0.7-0.4-1.3v-4.6c0-0.9-0.1-1.6-0.4-2.1c-0.3-0.5-0.8-0.7-1.5-0.7c-0.7,0-1,0.1-1.4,0.4c-0.4,0.3-0.7,0.7-0.9,1.2
	c-0.1,0.4-0.2,1.2-0.2,2.3v3.5c0,0.6-0.1,1-0.4,1.3c-0.3,0.3-0.6,0.4-1,0.4c-0.4,0-0.7-0.1-1-0.4c-0.3-0.3-0.4-0.7-0.4-1.3v-8
	c0-0.5,0.1-0.9,0.3-1.2c0.2-0.3,0.6-0.4,1-0.4s0.5,0,0.7,0.2c0.2,0.2,0.4,0.3,0.5,0.5C103.2,95.1,103.3,95.4,103.3,95.9L103.3,95.9z
	"/>
<path class="st0" d="M113.6,94.6h0.3v-1.7c0-0.5,0-0.8,0-1.1c0-0.3,0-0.5,0.2-0.7c0.1-0.2,0.3-0.3,0.5-0.5c0.2-0.2,0.4-0.2,0.7-0.2
	c0.3,0,0.7,0.1,1,0.4c0.3,0.3,0.3,0.4,0.4,0.7c0,0.3,0,0.6,0,1.1v1.9h1c0.4,0,0.7,0,0.9,0.3c0.2,0.2,0.3,0.4,0.3,0.7
	s-0.1,0.6-0.4,0.8c-0.3,0.2-0.7,0.2-1.3,0.2h-0.5v5c0,0.4,0,0.8,0,1c0,0.2,0.1,0.4,0.2,0.6c0.1,0.1,0.4,0.2,0.7,0.2
	c0.3,0,0.4,0,0.7,0c0.3,0,0.5,0,0.7,0c0.2,0,0.4,0,0.6,0.3c0.2,0.2,0.3,0.4,0.3,0.7c0,0.5-0.2,0.8-0.7,1c-0.5,0.2-1.2,0.4-2.1,0.4
	s-1.5-0.1-2-0.4c-0.5-0.3-0.7-0.7-0.9-1.2c-0.2-0.5-0.2-1.2-0.2-2.1v-5.3h-0.4c-0.4,0-0.7,0-0.9-0.3c-0.2-0.3-0.3-0.4-0.3-0.7
	c0-0.3,0.1-0.5,0.3-0.7C112.9,94.8,113.2,94.7,113.6,94.6L113.6,94.6z"/>
<path class="st0" d="M132.1,99.5h-2.8v4.3c0,0.6-0.1,1.1-0.4,1.4c-0.3,0.3-0.6,0.5-1.1,0.5s-0.8-0.2-1.1-0.5
	c-0.3-0.3-0.4-0.8-0.4-1.4V92.3c0-0.7,0.2-1.1,0.5-1.4c0.3-0.3,0.8-0.4,1.5-0.4h3.9c1.2,0,2,0,2.7,0.3c0.6,0.2,1.1,0.5,1.6,0.9
	c0.5,0.4,0.8,0.9,1,1.5c0.2,0.6,0.3,1.2,0.3,1.9c0,1.5-0.5,2.7-1.4,3.5c-0.9,0.8-2.3,1.2-4.2,1.2L132.1,99.5z M131.4,92.7h-2.1v4.6
	h2.1c0.7,0,1.3,0,1.8-0.2c0.5-0.2,0.8-0.4,1.1-0.7c0.3-0.3,0.4-0.8,0.4-1.3c0-0.5-0.2-1.2-0.6-1.6C133.6,93.1,132.8,92.8,131.4,92.7
	L131.4,92.7z"/>
<path class="st0" d="M146.4,104c-0.7,0.5-1.3,0.9-2,1.2c-0.6,0.3-1.3,0.4-2.1,0.4s-1.3-0.1-1.9-0.4c-0.5-0.3-1-0.7-1.3-1.2
	c-0.3-0.5-0.4-1-0.4-1.6c0-0.6,0.2-1.4,0.7-2c0.5-0.6,1.2-0.9,2-1.1c0.2,0,0.6-0.1,1.3-0.3c0.7-0.2,1.3-0.3,1.8-0.4s1-0.3,1.6-0.4
	c0-0.7-0.2-1.3-0.4-1.6c-0.3-0.3-0.8-0.5-1.6-0.5s-1.2,0-1.6,0.3c-0.4,0.2-0.7,0.5-0.9,0.9c-0.3,0.4-0.4,0.7-0.5,0.8
	c-0.1,0.1-0.3,0.2-0.7,0.2c-0.4,0-0.6-0.1-0.8-0.3c-0.2-0.2-0.3-0.5-0.3-0.8c0-0.5,0.2-1,0.5-1.4s0.9-0.8,1.6-1.1
	c0.7-0.3,1.7-0.5,2.8-0.5c1.1,0,2.2,0.1,2.9,0.4c0.7,0.3,1.2,0.8,1.5,1.4c0.3,0.6,0.4,1.5,0.4,2.5c0,1,0,1.2,0,1.7c0,0.5,0,1,0,1.5
	c0,0.5,0,1.1,0.3,1.6c0.2,0.6,0.3,0.9,0.3,1.1c0,0.3-0.1,0.5-0.4,0.8c-0.3,0.2-0.6,0.4-0.9,0.4s-0.6-0.1-0.9-0.4
	C147.1,104.9,146.8,104.5,146.4,104L146.4,104z M146.2,100c-0.4,0.2-1,0.3-1.8,0.5c-0.8,0.2-1.3,0.3-1.6,0.4c-0.3,0-0.6,0.2-0.9,0.5
	c-0.3,0.3-0.4,0.5-0.4,1c0,0.5,0.2,0.8,0.5,1.1c0.3,0.3,0.7,0.4,1.3,0.4s1.1-0.1,1.5-0.4c0.5-0.2,0.8-0.6,1-0.9
	c0.3-0.4,0.4-1.1,0.4-2.1V100L146.2,100z"/>
<path class="st0" d="M151.4,94.6h0.3v-1.7c0-0.5,0-0.8,0-1.1c0-0.3,0-0.5,0.2-0.7c0.1-0.2,0.3-0.3,0.5-0.5c0.2-0.2,0.4-0.2,0.7-0.2
	s0.7,0.1,1,0.4s0.3,0.4,0.4,0.7c0,0.3,0,0.6,0,1.1v1.9h1c0.4,0,0.7,0,0.9,0.3c0.2,0.2,0.3,0.4,0.3,0.7s-0.1,0.6-0.4,0.8
	s-0.7,0.2-1.3,0.2h-0.5v5c0,0.4,0,0.8,0,1c0,0.2,0.1,0.4,0.2,0.6c0.1,0.1,0.3,0.2,0.7,0.2c0.4,0,0.4,0,0.7,0s0.5,0,0.7,0
	s0.4,0,0.6,0.3c0.2,0.2,0.3,0.4,0.3,0.7c0,0.5-0.2,0.8-0.7,1c-0.5,0.2-1.2,0.4-2.1,0.4c-0.9,0-1.5-0.1-2-0.4
	c-0.5-0.3-0.7-0.7-0.9-1.2c-0.1-0.5-0.2-1.2-0.2-2.1v-5.3h-0.4c-0.4,0-0.7,0-0.9-0.3c-0.2-0.3-0.3-0.4-0.3-0.7
	c0-0.3,0.1-0.5,0.3-0.7C150.7,94.8,151,94.7,151.4,94.6L151.4,94.6z"/>
<path class="st0" d="M161.4,91.9v4.2c0.4-0.4,0.7-0.7,1-1c0.3-0.2,0.7-0.4,1.1-0.5c0.4-0.1,0.9-0.2,1.3-0.2c0.7,0,1.3,0.2,1.9,0.5
	s1,0.7,1.3,1.3c0.2,0.3,0.3,0.7,0.4,1.1c0,0.4,0.1,0.9,0.1,1.4v5.3c0,0.6-0.1,1-0.4,1.3c-0.3,0.3-0.6,0.4-1,0.4
	c-0.9,0-1.4-0.6-1.4-1.7v-4.6c0-0.9-0.1-1.6-0.4-2.1c-0.3-0.5-0.8-0.7-1.5-0.7c-0.7,0-0.9,0.1-1.3,0.4c-0.4,0.3-0.7,0.7-0.9,1.2
	c-0.2,0.4-0.2,1.2-0.2,2.2v3.7c0,0.6-0.1,1-0.4,1.3c-0.2,0.3-0.6,0.4-1,0.4c-0.9,0-1.4-0.6-1.4-1.7V92c0-0.6,0.1-1,0.4-1.3
	c0.2-0.3,0.6-0.4,1-0.4c0.4,0,0.8,0.1,1,0.4S161.4,91.4,161.4,91.9L161.4,91.9z"/>
<path class="st0" d="M76.3,14.5c-10.8,1.9-19.5,10.3-22.1,21.5c-0.7,3-0.8,4.2-0.6,7.7c0.3,5.1,0.9,7.5,3.2,12.2
	c1.3,2.7,2.4,4.3,4.1,6.1l2.4,2.6l3.5-3.5c1.9-1.9,3.5-3.5,3.5-3.6s-0.9-1.1-1.9-2.2c-3.5-3.6-5-7.5-5-12.8s3.8-13.1,9.9-16.1
	c3.8-1.9,5.8-2.2,18.9-2.2H104l4.4-4.4c2.4-2.4,4.3-4.4,4.2-4.5c-0.1,0-0.8-0.4-1.6-0.6C109.3,14.4,79.3,14.1,76.3,14.5L76.3,14.5z"
	/>
<path class="st0" d="M118.4,23.9l-3.4,3.5l2.1,2.2c3.5,3.9,5.1,7.8,5.1,13.2c0,3.2-0.8,6.3-2.2,8.9c-1.3,2.5-5.1,5.8-7.9,7.1
	c-4.1,1.9-6.1,2.2-19.2,2.2H81.1l-4.2,4.2c-4.7,4.6-4.7,4.6-0.9,5.1c3.7,0.7,31.2,0.5,34.5-0.1c7.8-1.6,15.4-7.8,18.9-15.5
	c1.9-4.2,2.6-7.9,2.4-13.3c-0.1-4.2-0.3-5-1.5-8.4c-0.7-2-1.8-4.6-2.5-5.7c-1.2-2-5.2-6.6-5.8-6.6C121.4,20.6,120.2,22.1,118.4,23.9
	z"/>
<path class="st1" d="M90.9,33.6c-7.9,2.8-8.7,13.6-1.4,17.8c1.5,0.9,2.1,1,4.8,1c2.7,0,3.3-0.1,4.8-1c4.6-2.7,6.3-8.2,4-13.1
	c-1-2-3.8-4.4-5.8-4.9C95.4,33,92.6,33.1,90.9,33.6L90.9,33.6z"/>
</svg>
