<svg width="48" height="48" viewBox="0 0 48 48" fill="none" xmlns="http://www.w3.org/2000/svg">
<path d="M8 1H40C43.9 1 47 4.1 47 8V40C47 43.9 43.9 47 40 47H8C4.1 47 1 43.9 1 40V8C1 4.1 4.1 1 8 1Z" fill="#FFB45C"/>
<path d="M40 48H8C3.6 48 0 44.4 0 40V8C0 3.6 3.6 0 8 0H40C44.4 0 48 3.6 48 8V40C48 44.4 44.4 48 40 48ZM8 2C4.7 2 2 4.7 2 8V40C2 43.3 4.7 46 8 46H40C43.3 46 46 43.3 46 40V8C46 4.7 43.3 2 40 2H8Z" fill="#FFB45C"/>
<path fill-rule="evenodd" clip-rule="evenodd" d="M13.9 38.56C11.16 38.56 8.94 36.48 8.94 33.93V23.05C8.94 20.5 11.17 18.42 13.9 18.42H14.53V14.06C14.53 9.52997 18.7 5.83997 23.83 5.83997C28.96 5.83997 32.82 9.22997 33.11 13.56L33.18 14.63H28.43L28.34 13.73C28.14 11.78 26.16 10.24 23.83 10.24C21.33 10.24 19.3 11.95 19.3 14.05V18.41H27.07V18.44H34.38C36.83 18.75 38.69 20.72 38.69 23.04V33.92C38.69 36.47 36.46 38.55 33.73 38.55H13.9V38.56Z" fill="#744712"/>
<path d="M23.82 6.83998C28.24 6.83998 31.85 9.83998 32.1 13.63H29.33C29.08 11.17 26.71 9.24998 23.82 9.24998C20.77 9.24998 18.29 11.41 18.29 14.07V19.43H26.06V19.46H34.25C36.19 19.7 37.68 21.22 37.68 23.06V33.94C37.68 35.94 35.91 37.57 33.72 37.57H13.9C11.71 37.57 9.94 35.95 9.94 33.94V23.06C9.94 21.06 11.71 19.43 13.9 19.43H15.53V14.07C15.53 10.08 19.24 6.84998 23.83 6.84998M23.83 4.84998C18.15 4.84998 13.53 8.98997 13.53 14.07V17.44C10.41 17.62 7.94 20.07 7.94 23.06V33.94C7.94 37.04 10.62 39.57 13.9 39.57H33.72C37.01 39.57 39.68 37.05 39.68 33.94V23.06C39.68 20.24 37.45 17.84 34.5 17.48L34.38 17.46H28.07L26.07 17.43H20.3V14.07C20.3 12.52 21.88 11.25 23.83 11.25C25.66 11.25 27.2 12.39 27.35 13.84L27.53 15.64H34.25L34.11 13.51C33.78 8.65998 29.27 4.84998 23.83 4.84998Z" fill="#FFB45C"/>
<path d="M12.89 32.28V25.96H15.5C15.97 25.96 16.38 26.05 16.72 26.24C17.07 26.42 17.33 26.68 17.52 27.01C17.71 27.34 17.8 27.72 17.8 28.15C17.8 28.58 17.7 28.97 17.51 29.29C17.32 29.62 17.05 29.87 16.7 30.05C16.35 30.23 15.93 30.32 15.45 30.32H13.84V29.12H15.17C15.4 29.12 15.59 29.08 15.75 29C15.91 28.92 16.02 28.81 16.1 28.66C16.18 28.51 16.22 28.34 16.22 28.15C16.22 27.96 16.18 27.79 16.1 27.64C16.02 27.5 15.9 27.38 15.75 27.31C15.59 27.23 15.4 27.19 15.17 27.19H14.42V32.28H12.89Z" fill="#FFB45C"/>
<path d="M19.16 32.28H17.52L19.65 25.96H21.68L23.81 32.28H22.17L20.69 27.55H20.64L19.16 32.28ZM18.94 29.79H22.37V30.95H18.94V29.79Z" fill="#FFB45C"/>
<path d="M27.72 27.85C27.7 27.62 27.61 27.45 27.45 27.32C27.29 27.19 27.06 27.13 26.76 27.13C26.56 27.13 26.4 27.16 26.27 27.21C26.14 27.26 26.04 27.33 25.97 27.42C25.9 27.51 25.87 27.61 25.87 27.73C25.87 27.82 25.88 27.91 25.93 27.98C25.97 28.05 26.03 28.12 26.12 28.17C26.2 28.22 26.3 28.27 26.42 28.31C26.54 28.35 26.66 28.39 26.81 28.42L27.35 28.54C27.66 28.61 27.94 28.7 28.18 28.81C28.42 28.92 28.62 29.06 28.78 29.21C28.94 29.37 29.07 29.55 29.15 29.75C29.23 29.95 29.28 30.18 29.28 30.43C29.28 30.83 29.18 31.17 28.98 31.46C28.78 31.75 28.49 31.96 28.12 32.12C27.75 32.27 27.3 32.35 26.77 32.35C26.24 32.35 25.78 32.27 25.39 32.11C25 31.95 24.69 31.71 24.47 31.39C24.25 31.07 24.14 30.66 24.13 30.17H25.59C25.6 30.37 25.66 30.54 25.75 30.68C25.85 30.82 25.98 30.92 26.15 30.99C26.32 31.06 26.52 31.09 26.74 31.09C26.95 31.09 27.12 31.06 27.26 31.01C27.41 30.95 27.52 30.88 27.6 30.78C27.68 30.68 27.72 30.57 27.72 30.44C27.72 30.32 27.68 30.22 27.61 30.13C27.54 30.04 27.43 29.97 27.28 29.91C27.13 29.85 26.94 29.79 26.71 29.73L26.05 29.58C25.5 29.45 25.07 29.25 24.76 28.97C24.45 28.69 24.29 28.31 24.29 27.83C24.29 27.44 24.39 27.1 24.6 26.8C24.81 26.51 25.1 26.28 25.48 26.11C25.85 25.95 26.28 25.86 26.76 25.86C27.24 25.86 27.67 25.94 28.03 26.11C28.39 26.27 28.67 26.51 28.87 26.8C29.07 27.1 29.17 27.44 29.18 27.84H27.72V27.85Z" fill="#FFB45C"/>
<path d="M33.45 27.85C33.43 27.62 33.34 27.45 33.18 27.32C33.02 27.19 32.79 27.13 32.49 27.13C32.29 27.13 32.13 27.16 32 27.21C31.87 27.26 31.77 27.33 31.7 27.42C31.63 27.51 31.6 27.61 31.6 27.73C31.6 27.82 31.61 27.91 31.66 27.98C31.7 28.05 31.76 28.12 31.85 28.17C31.93 28.22 32.03 28.27 32.15 28.31C32.27 28.35 32.39 28.39 32.54 28.42L33.08 28.54C33.39 28.61 33.67 28.7 33.91 28.81C34.15 28.92 34.35 29.06 34.51 29.21C34.67 29.37 34.8 29.55 34.88 29.75C34.96 29.95 35.01 30.18 35.01 30.43C35.01 30.83 34.91 31.17 34.71 31.46C34.51 31.75 34.22 31.96 33.85 32.12C33.48 32.27 33.03 32.35 32.5 32.35C31.97 32.35 31.51 32.27 31.12 32.11C30.73 31.95 30.42 31.71 30.2 31.39C29.98 31.07 29.87 30.66 29.86 30.17H31.32C31.33 30.37 31.39 30.54 31.48 30.68C31.58 30.82 31.71 30.92 31.88 30.99C32.05 31.06 32.25 31.09 32.47 31.09C32.68 31.09 32.85 31.06 32.99 31.01C33.14 30.95 33.25 30.88 33.33 30.78C33.41 30.68 33.45 30.57 33.45 30.44C33.45 30.32 33.41 30.22 33.34 30.13C33.27 30.04 33.16 29.97 33.01 29.91C32.86 29.85 32.67 29.79 32.44 29.73L31.78 29.58C31.23 29.45 30.8 29.25 30.49 28.97C30.18 28.69 30.02 28.31 30.02 27.83C30.02 27.44 30.12 27.1 30.33 26.8C30.54 26.51 30.83 26.28 31.21 26.11C31.58 25.95 32.01 25.86 32.49 25.86C32.97 25.86 33.4 25.94 33.76 26.11C34.12 26.27 34.4 26.51 34.6 26.8C34.8 27.1 34.9 27.44 34.91 27.84H33.45V27.85Z" fill="#FFB45C"/>
</svg>
