<svg width="25" height="25" viewBox="0 0 25 25" fill="none" xmlns="http://www.w3.org/2000/svg">
<path d="M22.23 18.2197L14.23 4.21971C14.0556 3.91191 13.8026 3.65589 13.4969 3.47778C13.1912 3.29966 12.8438 3.20581 12.49 3.20581C12.1362 3.20581 11.7888 3.29966 11.4831 3.47778C11.1774 3.65589 10.9244 3.91191 10.75 4.21971L2.75 18.2197C2.57368 18.5251 2.48123 18.8716 2.48201 19.2242C2.48279 19.5768 2.57678 19.923 2.75444 20.2275C2.93211 20.5321 3.18715 20.7843 3.49369 20.9585C3.80024 21.1328 4.14741 21.2229 4.5 21.2197H20.5C20.8509 21.2193 21.1955 21.1267 21.4993 20.951C21.803 20.7753 22.0552 20.5228 22.2305 20.2188C22.4058 19.9148 22.498 19.5701 22.4979 19.2192C22.4979 18.8683 22.4054 18.5236 22.23 18.2197Z" stroke="#FB923C" stroke-width="1.5" stroke-linecap="round" stroke-linejoin="round"/>
<path d="M12.5 9.21973V13.2197" stroke="#FB923C" stroke-width="1.5" stroke-linecap="round" stroke-linejoin="round"/>
<path d="M12.5 17.2197H12.51" stroke="#FB923C" stroke-width="1.5" stroke-linecap="round" stroke-linejoin="round"/>
</svg>
